<svg xmlns="http://www.w3.org/2000/svg" xml:space="preserve" width="2048" height="2048" style="shape-rendering:geometricPrecision;text-rendering:geometricPrecision;image-rendering:optimizeQuality;fill-rule:evenodd;clip-rule:evenodd"><defs><style>.fil1{fill:#342e2e7b}</style></defs><path style="fill:#342e2e7b" d="M0 0h2048v2048H0z"/><g id="Layer_x0020_1"><path class="fil1" d="M0 0h2048v2048H0z"/><path class="fil1" d="M255.999 255.999h1536v1536h-1536z"/><path class="fil1" d="M255.999 255.997h1536v1536h-1536z"/><path d="M380.53 1001.15c-29.679 17.209-47.679 49.221-46.64 83.558.838 34.35 20.38 65.57 51.031 81.011l334.813 170.737 933.198-1008.19-795.423 1078.64 457.883 233.322c28.974 14.828 63.546 15.397 93.201.95 29.432-14.392 50.328-41.769 56.797-73.826l248.127-1271.39c2.582-12.929-2.738-26.191-13.465-33.734-7.039-5.005-15.464-7.017-23.643-5.956l-1.766.28c-3.687.693-7.307 2.034-10.726 4l-1283.39 740.593zm279.57 419.255 7.084 13.655 162.28 309.07c12.044 23.084 34 40.404 58.707 46.606 24.448 6 48.629-.09 63.792-16.337 61.489-65.3 141.718-151.461 137.495-155.038L660.1 1420.405z" style="fill:#fff"/></g></svg>